<svg width="83" height="82" viewBox="0 0 83 82" fill="none" xmlns="http://www.w3.org/2000/svg">
<g clip-path="url(#clip0_1794_44885)">
<g filter="url(#filter0_d_1794_44885)">
<path fill-rule="evenodd" clip-rule="evenodd" d="M41.5 0C18.8923 0 0.5 18.3927 0.5 41C0.5 63.6073 18.8923 82 41.5 82C64.1077 82 82.5 63.6077 82.5 41C82.5 18.3923 64.1077 0 41.5 0Z" fill="#304880"/>
<path fill-rule="evenodd" clip-rule="evenodd" d="M71.1932 69.2442C74.0551 66.238 76.4461 62.8164 78.2851 59.0953L78.2993 59.0665C78.3323 58.9994 78.3652 58.9322 78.3978 58.865L78.4563 58.7441C78.4828 58.6894 78.509 58.6347 78.5351 58.5801C78.58 58.4859 78.6247 58.3915 78.669 58.2969L78.701 58.228C78.7418 58.1403 78.7823 58.0524 78.8226 57.9644L78.8511 57.9016C80.3964 54.5038 81.4661 50.9091 82.03 47.2192C82.0728 46.9386 82.1114 46.6568 82.1485 46.3742L65.094 26.4274L65.1189 26.4705L65.1433 26.5142L65.1672 26.5583L65.1902 26.6028L65.2125 26.6476L65.2341 26.6931L65.2551 26.7388L65.2753 26.7849L65.2948 26.8315L65.3135 26.8784L65.3315 26.9265L65.3489 26.9745L65.365 27.0226L65.381 27.0706L65.397 27.1186L65.4111 27.1677L65.4245 27.217L65.437 27.2668L65.4489 27.3168L65.4598 27.3671L65.4699 27.4177L65.4793 27.4686L65.4876 27.5198L65.4953 27.5712L65.502 27.623L65.508 27.6749L65.5129 27.7271L65.5171 27.7796L65.5201 27.8323L65.5225 27.8852L65.524 27.9383V27.9917V28.3961L62.5263 24.9093L41.5002 39.3559L20.5021 24.9062L53.2877 57.0949L20.5646 57.094L20.4061 57.09L20.2496 57.078L20.0952 57.0584L19.9434 57.0312L19.7941 56.9968L19.6477 56.9551L19.5044 56.9071L19.3642 56.8517L19.2275 56.7898L19.0944 56.7216L18.9651 56.6471L18.8397 56.5671L18.7186 56.4809L18.6021 56.3891L47.8466 81.5085C48.1329 81.4639 48.4184 81.4164 48.7029 81.3661C56.0003 80.0617 62.8056 76.7974 68.3905 71.9227L68.3914 71.9236C69.3665 71.0745 70.3004 70.1814 71.1932 69.2442Z" fill="#2D3F6A"/>
<path fill-rule="evenodd" clip-rule="evenodd" d="M65.5234 54.0085C65.522 54.8269 65.1963 55.6114 64.6176 56.1901C64.0388 56.7687 63.2543 57.0944 62.4359 57.0957H20.5642C19.7457 57.0948 18.9609 56.7693 18.3821 56.1905C17.8032 55.6118 17.4776 54.8271 17.4766 54.0085V27.9916C17.4772 27.4358 17.6285 26.8905 17.9144 26.4138L40.7317 42.114C40.9571 42.27 41.2246 42.3536 41.4987 42.3538C41.7728 42.354 42.0404 42.2708 42.266 42.1152L65.0934 26.4282C65.3744 26.9016 65.5229 27.4418 65.5234 27.9923V54.0085ZM62.4359 24.9043H20.5642C20.5421 24.9043 20.5221 24.9067 20.5019 24.9067L41.5 39.3566L62.5253 24.9105C62.4952 24.9081 62.4664 24.9043 62.4359 24.9043Z" fill="white"/>
</g>
</g>
<defs>
<filter id="filter0_d_1794_44885" x="-3.5" y="0" width="90" height="90" filterUnits="userSpaceOnUse" color-interpolation-filters="sRGB">
<feFlood flood-opacity="0" result="BackgroundImageFix"/>
<feColorMatrix in="SourceAlpha" type="matrix" values="0 0 0 0 0 0 0 0 0 0 0 0 0 0 0 0 0 0 127 0" result="hardAlpha"/>
<feOffset dy="4"/>
<feGaussianBlur stdDeviation="2"/>
<feComposite in2="hardAlpha" operator="out"/>
<feColorMatrix type="matrix" values="0 0 0 0 0 0 0 0 0 0 0 0 0 0 0 0 0 0 0.25 0"/>
<feBlend mode="normal" in2="BackgroundImageFix" result="effect1_dropShadow_1794_44885"/>
<feBlend mode="normal" in="SourceGraphic" in2="effect1_dropShadow_1794_44885" result="shape"/>
</filter>
<clipPath id="clip0_1794_44885">
<rect width="82" height="82" fill="white" transform="translate(0.5)"/>
</clipPath>
</defs>
</svg>
