<svg width="90" height="90" viewBox="0 0 90 90" fill="none" xmlns="http://www.w3.org/2000/svg">
<g clip-path="url(#clip0_1794_44919)" filter="url(#filter0_d_1794_44919)">
<path d="M45 82C67.6437 82 86 63.6437 86 41C86 18.3563 67.6437 0 45 0C22.3563 0 4 18.3563 4 41C4 63.6437 22.3563 82 45 82Z" fill="#304880"/>
<path d="M45.0251 81.9995C67.6573 81.986 86.0003 63.6348 86.0003 40.9995C86.0003 40.1441 85.974 39.2948 85.9224 38.4525L65.2192 17.7493L64.3225 18.6684L56.2245 10.5706L54.2913 17.3048L45.0003 8.01367L19.7822 39.6285L28.3507 48.197L24.7813 50.0001L39.3415 64.5602L33.2267 70.2012L45.0251 81.9995Z" fill="#2D3F6A"/>
<path d="M56.7734 70.2011L45 64.4228L33.2266 70.2011V46.6543H56.7734V70.2011Z" fill="#FF6C52"/>
<path d="M56.7734 70.2011L45 64.4228V46.6543H56.7734V70.2011Z" fill="#FF432E"/>
<path d="M45.0003 59.7355L40.3112 54.4074L33.776 57.1788L31.8727 50.3388L24.7813 49.9999L26.0235 43.011L19.7822 39.6285L23.944 33.8746L19.7822 28.1206L26.0235 24.738L24.7815 17.7489L31.8729 17.4102L33.7762 10.5704L40.3114 13.3417L45.0003 8.01367L49.6893 13.3417L56.2247 10.5704L58.1278 17.4104L65.2192 17.7491L63.977 24.7381L70.2183 28.1206L66.0565 33.8746L70.2183 39.6285L63.977 43.0112L65.219 50.0002L58.1276 50.3388L56.2243 57.1788L49.6893 54.4074L45.0003 59.7355Z" fill="#FFCE00"/>
<path d="M45 59.7355V8.01367L49.6891 13.3417L56.2244 10.5704L58.1275 17.4104L65.2189 17.7491L63.9768 24.7381L70.218 28.1206L66.0562 33.8746L70.218 39.6285L63.9768 43.0112L65.2188 50.0002L58.1274 50.3388L56.2241 57.1788L49.6891 54.4074L45 59.7355Z" fill="#FDBA12"/>
<path d="M45.0002 52.1196C55.0758 52.1196 63.2436 43.9518 63.2436 33.8762C63.2436 23.8007 55.0758 15.6328 45.0002 15.6328C34.9247 15.6328 26.7568 23.8007 26.7568 33.8762C26.7568 43.9518 34.9247 52.1196 45.0002 52.1196Z" fill="white"/>
<path d="M63.2434 33.8762C63.2434 43.9518 55.0756 52.1196 45 52.1196V15.6328C55.0756 15.6328 63.2434 23.8006 63.2434 33.8762Z" fill="#E9EDF5"/>
<path d="M38.2131 30.7068V26.5649H36.7031V25.0801H41.4188V26.5649H39.9171V30.7068H38.2131Z" fill="#636978"/>
<path d="M41.5537 27.8968C41.5537 26.1675 42.895 24.9863 44.6329 24.9863C46.3707 24.9863 47.712 26.1675 47.712 27.8968C47.712 29.6262 46.3707 30.8072 44.6329 30.8072C42.895 30.8072 41.5537 29.6262 41.5537 27.8968ZM45.9827 27.8968C45.9827 27.1124 45.4513 26.488 44.6329 26.488C43.8146 26.488 43.2831 27.1122 43.2831 27.8968C43.2831 28.6813 43.8145 29.3056 44.6329 29.3056C45.4511 29.3056 45.9827 28.6813 45.9827 27.8968Z" fill="#636978"/>
<path d="M48.3193 30.7068V25.0801H51.3224C52.6386 25.0801 53.3471 25.9574 53.3471 27.0119C53.3471 28.058 52.6386 28.9354 51.3224 28.9354H50.0234V30.707H48.3193V30.7068ZM51.6176 27.0117C51.6176 26.7081 51.3898 26.5647 51.103 26.5647H50.0232V27.4504H51.103C51.3898 27.4506 51.6176 27.3071 51.6176 27.0117Z" fill="#636978"/>
<path d="M30.3926 39.9276V34.3008H33.8092C34.9734 34.3008 35.4795 35.0769 35.4795 35.7348C35.4795 36.435 35.0661 36.9073 34.5177 37.0255C35.125 37.1184 35.589 37.6753 35.589 38.4006C35.589 39.1851 35.0576 39.9276 33.9272 39.9276H30.3926ZM33.7503 36.0385C33.7503 35.8444 33.5899 35.7178 33.4128 35.7178H32.0968V36.3758H33.4128C33.5899 36.3759 33.7503 36.2409 33.7503 36.0385ZM33.8598 38.1559C33.8598 37.9535 33.708 37.7931 33.4633 37.7931H32.0966V38.5103H33.4633C33.708 38.5103 33.8598 38.367 33.8598 38.1559Z" fill="#636978"/>
<path d="M39.3684 39.9276L38.5923 38.1559H37.9765V39.9276H36.2725V34.3008H39.2757C40.5917 34.3008 41.3004 35.1781 41.3004 36.2326C41.3004 37.2028 40.7352 37.7174 40.2881 37.9368L41.3089 39.9277H39.3684V39.9276ZM39.571 36.2241C39.571 35.9206 39.301 35.7856 39.0143 35.7856H37.9767V36.6713H39.0143C39.301 36.6713 39.571 36.5362 39.571 36.2241Z" fill="#636978"/>
<path d="M45.7461 39.9276L45.5437 39.2696H43.519L43.3166 39.9276H41.3848L43.4601 34.3008H45.6028L47.6781 39.9276H45.7461ZM44.5315 35.9711L43.9747 37.7848H45.0882L44.5315 35.9711Z" fill="#636978"/>
<path d="M51.7618 39.9276L49.6865 37.0761V39.9276H47.9824V34.3008H49.7371L51.6942 36.9666V34.3008H53.3984V39.9276H51.7618Z" fill="#636978"/>
<path d="M54.3096 39.9276V34.3008H56.8234C58.595 34.3008 59.9109 35.313 59.9109 37.1099C59.9109 38.9069 58.5949 39.9276 56.8319 39.9276H54.3096ZM58.1817 37.1099C58.1817 36.3508 57.743 35.7854 56.8319 35.7854H56.0136V38.4427H56.8235C57.6756 38.4427 58.1817 37.8186 58.1817 37.1099Z" fill="#636978"/>
</g>
<defs>
<filter id="filter0_d_1794_44919" x="0" y="0" width="90" height="90" filterUnits="userSpaceOnUse" color-interpolation-filters="sRGB">
<feFlood flood-opacity="0" result="BackgroundImageFix"/>
<feColorMatrix in="SourceAlpha" type="matrix" values="0 0 0 0 0 0 0 0 0 0 0 0 0 0 0 0 0 0 127 0" result="hardAlpha"/>
<feOffset dy="4"/>
<feGaussianBlur stdDeviation="2"/>
<feComposite in2="hardAlpha" operator="out"/>
<feColorMatrix type="matrix" values="0 0 0 0 0 0 0 0 0 0 0 0 0 0 0 0 0 0 0.25 0"/>
<feBlend mode="normal" in2="BackgroundImageFix" result="effect1_dropShadow_1794_44919"/>
<feBlend mode="normal" in="SourceGraphic" in2="effect1_dropShadow_1794_44919" result="shape"/>
</filter>
<clipPath id="clip0_1794_44919">
<rect width="82" height="82" fill="white" transform="translate(4)"/>
</clipPath>
</defs>
</svg>
