<svg width="90" height="90" viewBox="0 0 90 90" fill="none" xmlns="http://www.w3.org/2000/svg">
<g clip-path="url(#clip0_1794_44983)" filter="url(#filter0_d_1794_44983)">
<path d="M84.7229 30.8101C80.1924 13.0961 64.1259 0 45 0C22.3565 0 4 18.3565 4 41C4 60.1259 17.0961 76.1924 34.8101 80.7229L84.7229 30.8101Z" fill="#304880"/>
<path d="M86.0001 40.9995C86.0001 37.4817 85.5565 34.0676 84.723 30.8096L72.6306 18.7168L17.3696 63.282L34.81 80.7224C38.0682 81.5559 41.4823 81.9995 45.0001 81.9995C67.6438 81.9995 86.0001 63.6432 86.0001 40.9995Z" fill="#2D3F6A"/>
<path d="M72.6303 25.8484L41.4346 22.2832L44.9998 63.2832H72.6303V25.8484Z" fill="#80DEEA"/>
<path d="M17.3696 25.8484V63.2832H45.0001V22.2832L17.3696 25.8484Z" fill="#B2EBF2"/>
<path d="M69.0653 29.4121H45.0001L37.8696 44.5643L45.0001 59.7166H69.0653V29.4121Z" fill="#E0F7FA"/>
<path d="M44.9998 29.4121H20.9346V59.7164H44.9998V29.4121Z" fill="white"/>
<path d="M60.1522 18.7168L56.5869 22.2819L60.1522 25.8471H72.6304V18.7168H60.1522Z" fill="#FF5722"/>
<path d="M60.152 18.7168H44.9998L41.4346 22.2819L44.9998 25.8471H60.152V18.7168Z" fill="#006064"/>
<path d="M45.0001 18.7168H17.3696V25.8473H45.0001V18.7168Z" fill="#00838F"/>
<path d="M41.4348 34.7617H24.5V38.327H41.4348V34.7617Z" fill="#546E7A"/>
<path d="M41.4348 42.7832H24.5V46.3484H41.4348V42.7832Z" fill="#546E7A"/>
<path d="M41.4348 50.8047H24.5V54.3699H41.4348V50.8047Z" fill="#546E7A"/>
<path d="M65.5002 34.7617H48.5654V38.327H65.5002V34.7617Z" fill="#263238"/>
<path d="M65.5002 42.7832H48.5654V46.3484H65.5002V42.7832Z" fill="#263238"/>
<path d="M65.5002 50.8047H48.5654V54.3699H65.5002V50.8047Z" fill="#263238"/>
</g>
<defs>
<filter id="filter0_d_1794_44983" x="0" y="0" width="90" height="90" filterUnits="userSpaceOnUse" color-interpolation-filters="sRGB">
<feFlood flood-opacity="0" result="BackgroundImageFix"/>
<feColorMatrix in="SourceAlpha" type="matrix" values="0 0 0 0 0 0 0 0 0 0 0 0 0 0 0 0 0 0 127 0" result="hardAlpha"/>
<feOffset dy="4"/>
<feGaussianBlur stdDeviation="2"/>
<feComposite in2="hardAlpha" operator="out"/>
<feColorMatrix type="matrix" values="0 0 0 0 0 0 0 0 0 0 0 0 0 0 0 0 0 0 0.25 0"/>
<feBlend mode="normal" in2="BackgroundImageFix" result="effect1_dropShadow_1794_44983"/>
<feBlend mode="normal" in="SourceGraphic" in2="effect1_dropShadow_1794_44983" result="shape"/>
</filter>
<clipPath id="clip0_1794_44983">
<rect width="82" height="82" fill="white" transform="translate(4)"/>
</clipPath>
</defs>
</svg>
