<svg width="47" height="48" viewBox="0 0 47 48" fill="none" xmlns="http://www.w3.org/2000/svg">
<path d="M-0.0078125 21.293V45.3279L15.4432 33.3105L-0.0078125 21.293Z" fill="url(#paint0_radial_1794_45501)"/>
<path d="M40.3047 15.043V22.4326L44.8678 18.8836L40.3047 15.043Z" fill="url(#paint1_radial_1794_45501)"/>
<path d="M23.9624 1.30739C23.4567 0.88191 22.7181 0.88191 22.2124 1.30739L18.6094 4.33995H27.5654L23.9624 1.30739Z" fill="url(#paint2_radial_1794_45501)"/>
<path d="M5.88341 15.043L1.32031 18.8836L5.88341 22.4326V15.043Z" fill="url(#paint3_radial_1794_45501)"/>
<path d="M18.118 34.6758L1.8125 47.3579H44.3616L28.0561 34.6758H18.118Z" fill="url(#paint4_radial_1794_45501)"/>
<path d="M30.75 33.3106L46.2011 45.3281V21.293L30.75 33.3106Z" fill="url(#paint5_radial_1794_45501)"/>
<path d="M22.75 17.2383C21.6478 17.2383 20.5078 18.3099 20.5078 20.1032C20.5078 21.9263 21.6198 23.151 22.6585 23.151C23.7522 23.151 24.6491 21.8713 24.7136 20.2623L24.7154 19.9207C24.6665 18.3333 23.8722 17.2383 22.75 17.2383Z" fill="url(#paint6_radial_1794_45501)"/>
<path d="M28.0644 31.9698L37.5892 24.5616V8.41739C37.5892 7.66697 36.9808 7.05859 36.2304 7.05859H9.96036C9.20994 7.05859 8.60156 7.66697 8.60156 8.41739V24.5617L18.1263 31.9698H28.0644ZM13.5166 22.7217C12.8677 20.2546 13.194 17.6537 14.4355 15.3981C15.6764 13.1435 17.6987 11.4756 20.1297 10.7017C22.6945 9.88507 25.4178 10.1257 27.7976 11.3791C30.1778 12.6326 31.9167 14.7411 32.6938 17.3162C32.698 17.3302 32.702 17.3443 32.7057 17.3584C33.2223 19.2934 33.0694 21.1199 32.2099 23.2809C31.6289 24.7415 30.2047 26.3023 27.9495 26.3023C27.1313 26.3023 26.3468 25.9668 25.7404 25.3574C25.5969 25.2132 25.4676 25.0561 25.3519 24.8897C24.5903 25.5091 23.6668 25.8675 22.6615 25.8675C21.3481 25.8675 20.0712 25.2299 19.1582 24.1182C18.2779 23.0464 17.7932 21.6202 17.7932 20.102C17.7932 18.5771 18.309 17.166 19.2456 16.1289C20.1692 15.1062 21.4477 14.5195 22.7529 14.5195C23.4708 14.5195 24.153 14.6907 24.766 15.0131C24.8849 14.3832 25.437 13.9074 26.1 13.9074H26.1069C26.8573 13.9111 27.4627 14.5224 27.459 15.2729L27.4216 22.8219C27.4204 23.0537 27.5121 23.2849 27.6668 23.4403C27.7203 23.4942 27.8283 23.5845 27.9495 23.5845C29.046 23.5845 29.5283 22.6697 29.6846 22.2764C30.3193 20.6806 30.4396 19.4241 30.0856 18.0801C29.5174 16.2171 28.2558 14.6918 26.5313 13.7835C24.8007 12.8721 22.8198 12.6973 20.9541 13.2911C17.2764 14.4618 15.1639 18.3005 16.1449 22.0303C16.9594 25.1277 19.7592 27.3525 22.9533 27.441C23.7034 27.4617 24.2948 28.0867 24.274 28.8368C24.2536 29.5742 23.6494 30.158 22.9165 30.158C22.9037 30.158 22.891 30.1578 22.8781 30.1575C20.7725 30.0992 18.6939 29.3512 17.0252 28.0511C15.2915 26.7007 14.0784 24.8578 13.5166 22.7217Z" fill="url(#paint7_radial_1794_45501)"/>
<defs>
<radialGradient id="paint0_radial_1794_45501" cx="0" cy="0" r="1" gradientUnits="userSpaceOnUse" gradientTransform="translate(7.7177 33.3105) rotate(90) scale(12.0175 7.72551)">
<stop stop-color="#818A9F"/>
<stop offset="1" stop-color="#0A0F1A"/>
</radialGradient>
<radialGradient id="paint1_radial_1794_45501" cx="0" cy="0" r="1" gradientUnits="userSpaceOnUse" gradientTransform="translate(42.5862 18.7378) rotate(90) scale(3.69483 2.28155)">
<stop stop-color="#818A9F"/>
<stop offset="1" stop-color="#0A0F1A"/>
</radialGradient>
<radialGradient id="paint2_radial_1794_45501" cx="0" cy="0" r="1" gradientUnits="userSpaceOnUse" gradientTransform="translate(23.0874 2.66412) rotate(90) scale(1.67583 4.478)">
<stop stop-color="#818A9F"/>
<stop offset="1" stop-color="#0A0F1A"/>
</radialGradient>
<radialGradient id="paint3_radial_1794_45501" cx="0" cy="0" r="1" gradientUnits="userSpaceOnUse" gradientTransform="translate(3.60186 18.7378) rotate(90) scale(3.69483 2.28155)">
<stop stop-color="#818A9F"/>
<stop offset="1" stop-color="#0A0F1A"/>
</radialGradient>
<radialGradient id="paint4_radial_1794_45501" cx="0" cy="0" r="1" gradientUnits="userSpaceOnUse" gradientTransform="translate(23.087 41.0168) rotate(90) scale(6.34104 21.2745)">
<stop stop-color="#818A9F"/>
<stop offset="1" stop-color="#0A0F1A"/>
</radialGradient>
<radialGradient id="paint5_radial_1794_45501" cx="0" cy="0" r="1" gradientUnits="userSpaceOnUse" gradientTransform="translate(38.4756 33.3105) rotate(90) scale(12.0176 7.72556)">
<stop stop-color="#818A9F"/>
<stop offset="1" stop-color="#0A0F1A"/>
</radialGradient>
<radialGradient id="paint6_radial_1794_45501" cx="0" cy="0" r="1" gradientUnits="userSpaceOnUse" gradientTransform="translate(22.6116 20.1947) rotate(90) scale(2.95637 2.10378)">
<stop stop-color="#818A9F"/>
<stop offset="1" stop-color="#0A0F1A"/>
</radialGradient>
<radialGradient id="paint7_radial_1794_45501" cx="0" cy="0" r="1" gradientUnits="userSpaceOnUse" gradientTransform="translate(23.0954 19.5142) rotate(90) scale(12.4556 14.4938)">
<stop stop-color="#818A9F"/>
<stop offset="1" stop-color="#0A0F1A"/>
</radialGradient>
</defs>
</svg>
