<svg width="2591" height="740" viewBox="0 0 2591 740" fill="none" xmlns="http://www.w3.org/2000/svg">
<g filter="url(#filter0_d_489_8557)">
<path d="M331.517 498.936C275.783 499.339 235.81 489.462 222.775 484.446C253.583 479.894 303.155 477.881 340.744 430.013C366.288 389.234 364.399 313.963 321.516 226.648C288.571 149.612 214.229 50.128 181.16 10C188.963 10.9908 246.368 53.1314 321.516 134.471C396.663 215.811 457.072 316.688 455.71 390.132C454.347 463.577 401.215 498.379 331.517 498.905V498.936Z" fill="#304880"/>
<path d="M10.0396 568.109C7.99601 666.323 85.5894 685.211 129.774 685.211C79.4896 613.377 94.5377 552.008 103.981 502.715C115.283 443.762 177.828 336.134 197.954 305.574C214.055 281.113 262.574 223.801 284.806 198.194H277.529C264.401 206.802 225.388 236.743 174.298 287.832C63.5127 397.658 15.0246 494.696 10.0396 568.109Z" fill="#304880"/>
<path d="M115.685 255.133C147.116 255.133 172.595 229.653 172.595 198.223C172.595 166.792 147.116 141.313 115.685 141.313C84.2544 141.313 58.7749 166.792 58.7749 198.223C58.7749 229.653 84.2544 255.133 115.685 255.133Z" fill="#9F9F9F"/>
<path d="M416.131 144.289C447.562 144.289 473.041 118.809 473.041 87.3787C473.041 55.9482 447.562 30.4688 416.131 30.4688C384.701 30.4688 359.221 55.9482 359.221 87.3787C359.221 118.809 384.701 144.289 416.131 144.289Z" fill="#9F9F9F"/>
<path d="M2464.43 234.327C2505.99 234.327 2535.18 262.844 2535.18 305.79V414.934H2504.19V309.319C2504.19 280.462 2487.28 263.897 2458.77 263.897C2433.78 263.897 2405.6 280.09 2405.6 312.478V414.934H2374.61V150.882H2405.6V262.132C2418.27 244.885 2439.04 234.327 2464.4 234.327H2464.43Z" fill="#304880"/>
<path d="M2275.48 419.486C2222.31 419.486 2182.9 381.123 2182.9 326.907C2182.9 272.69 2222.69 234.327 2275.48 234.327C2301.89 234.327 2325.82 243.833 2342.02 260.367L2320.9 283.249C2311.39 271.638 2294.86 263.897 2275.14 263.897C2239.93 263.897 2215.28 289.256 2215.28 326.907C2215.28 364.557 2239.59 389.916 2275.85 389.916C2293.81 389.916 2309.66 383.569 2321.98 369.481L2343.1 392.362C2326.19 409.609 2302.6 419.486 2275.51 419.486H2275.48Z" fill="#304880"/>
<path d="M2079.11 234.328C2124.88 234.328 2151.29 258.603 2151.29 305.79V414.935H2125.25L2122.77 386.758C2107.97 408.247 2081.59 419.486 2056.57 419.486C2024.53 419.486 1994.25 400.134 1994.25 362.793C1994.25 321.953 2030.87 306.1 2065.37 306.1C2081.9 306.1 2102 308.577 2120.64 313.841V305.759C2120.64 278.295 2104.44 263.866 2075.21 263.866C2056.54 263.866 2034.37 269.842 2018.52 282.537L2004.8 258.603C2022.39 244.515 2049.17 234.328 2079.08 234.328H2079.11ZM2061.53 389.576C2090.39 389.576 2120.67 370.565 2120.67 340.283C2104.1 334.988 2086.17 332.883 2069.98 332.883C2045.67 332.883 2026.66 340.995 2026.66 362.112C2026.66 380.07 2040.75 389.576 2061.53 389.576Z" fill="#304880"/>
<path d="M1880.45 419.486C1827.29 419.486 1787.84 381.464 1787.84 326.907C1787.84 272.35 1827.29 234.328 1880.45 234.328C1933.61 234.328 1973.03 272.35 1973.03 326.907C1973.03 381.464 1933.61 419.486 1880.45 419.486ZM1880.45 389.917C1916.37 389.917 1940.64 364.558 1940.64 326.907C1940.64 289.256 1916.37 263.897 1880.45 263.897C1844.53 263.897 1820.26 289.256 1820.26 326.907C1820.26 364.558 1844.56 389.917 1880.45 389.917Z" fill="#304880"/>
<path d="M1667.7 419.484C1595.86 419.484 1542.36 366.692 1542.36 291.699C1542.36 216.707 1596.58 163.884 1668.04 163.884C1713.8 163.884 1749.38 185.001 1768.39 210.7L1740.58 230.424C1724.05 208.254 1697.27 196.272 1668.07 196.272C1616.3 196.272 1577.6 234.635 1577.6 291.669C1577.6 348.702 1614.91 387.065 1668.07 387.065C1698.35 387.065 1725.82 374.402 1742.35 350.467L1770.15 370.191C1746.56 404.002 1706.77 419.484 1667.7 419.484Z" fill="#304880"/>
<path d="M826.36 167.445V321.548C826.36 336.967 834.813 348.826 842.43 357.155C850.047 365.484 861.225 369.633 875.963 369.633C890.702 369.633 902.468 365.639 912.221 357.155C921.974 348.671 929.467 336.967 929.467 321.548V167.445H984.644V321.176C984.644 334.397 979.72 354.957 969.905 370.872C960.09 386.786 946.807 398.769 930.118 406.82C913.676 414.901 895.253 418.926 874.849 418.926C854.444 418.926 836.176 415.025 819.951 407.191C804.005 399.11 791.341 387.127 781.99 371.243C772.671 355.111 767.995 330.186 767.995 321.176V167.445H826.329H826.36Z" fill="#9F9F9F"/>
<path fill-rule="evenodd" clip-rule="evenodd" d="M739.596 294.61C746.346 281.853 749.721 267.827 749.721 252.562C749.721 236.028 746.222 221.382 739.224 208.625C732.227 195.869 721.73 185.837 707.735 178.591C693.74 171.315 676.586 167.692 656.336 167.692H556.047V411.123H610.139V336.688H656.336C677.081 336.688 694.483 332.818 708.478 325.046C722.473 317.275 732.846 307.15 739.627 294.641L739.596 294.61ZM658.658 216.583H609.458V289.439H658.658C678.784 289.439 695.102 273.121 695.102 252.995C695.102 232.869 678.784 216.552 658.658 216.552V216.583Z" fill="#9F9F9F"/>
<path fill-rule="evenodd" clip-rule="evenodd" d="M1120.58 337.864L1195.29 445.213H1260.28L1178.01 329.876C1197.98 322.507 1209.1 312.722 1216.16 302.907C1226.28 288.819 1231.33 272.78 1231.33 254.853C1231.33 238.969 1227.68 224.602 1220.34 211.783C1213 198.717 1201.88 188.468 1186.99 181.037C1172.35 173.606 1154.51 169.89 1133.55 169.89H1024.75V416.944H1078.9V337.926H1120.58V337.864ZM1139.53 220.638H1078.47V293.494H1139.53C1159.65 293.494 1175.94 277.177 1175.94 257.082C1175.94 236.987 1159.62 220.669 1139.53 220.669V220.638Z" fill="#9F9F9F"/>
<path fill-rule="evenodd" clip-rule="evenodd" d="M1383.42 419.487C1456.21 419.487 1515.23 362.422 1515.23 291.981C1515.23 221.54 1456.21 164.476 1383.42 164.476C1310.62 164.476 1251.61 221.571 1251.61 291.981C1251.61 362.391 1310.62 419.487 1383.42 419.487ZM1384.07 368.955C1424.88 368.955 1457.98 334.493 1457.98 292.012C1457.98 249.531 1424.91 215.069 1384.07 215.069C1343.23 215.069 1310.16 249.531 1310.16 292.012C1310.16 334.493 1343.23 368.955 1384.07 368.955Z" fill="#9F9F9F"/>
<path d="M556.031 444.815H1134.73L1173.71 500.672H556.031V444.815Z" fill="#304880"/>
<path d="M2536.81 500.672H1233.8L1194.84 444.815H2536.81V500.672Z" fill="#9F9F9F"/>
</g>
<defs>
<filter id="filter0_d_489_8557" x="5.53131e-05" y="5.53131e-05" width="2590.81" height="739.211" filterUnits="userSpaceOnUse" color-interpolation-filters="sRGB">
<feFlood flood-opacity="0" result="BackgroundImageFix"/>
<feColorMatrix in="SourceAlpha" type="matrix" values="0 0 0 0 0 0 0 0 0 0 0 0 0 0 0 0 0 0 127 0" result="hardAlpha"/>
<feOffset dx="22" dy="22"/>
<feGaussianBlur stdDeviation="16"/>
<feComposite in2="hardAlpha" operator="out"/>
<feColorMatrix type="matrix" values="0 0 0 0 0 0 0 0 0 0 0 0 0 0 0 0 0 0 0.15 0"/>
<feBlend mode="normal" in2="BackgroundImageFix" result="effect1_dropShadow_489_8557"/>
<feBlend mode="normal" in="SourceGraphic" in2="effect1_dropShadow_489_8557" result="shape"/>
</filter>
</defs>
</svg>
