<svg width="36" height="28" viewBox="0 0 36 28" fill="none" xmlns="http://www.w3.org/2000/svg">
<g filter="url(#filter0_d_1726_44360)">
<path d="M30.25 20H5.75001C4.78347 20 4 19.4403 4 18.75C4 18.0597 4.78347 17.5 5.75001 17.5H30.25C31.2165 17.5 32.0001 18.0597 32.0001 18.75C32 19.4403 31.2165 20 30.25 20Z" fill="white"/>
<path d="M30.75 11.6113H13.25C12.5596 11.6113 12 10.9398 12 10.1114C12 9.28294 12.5596 8.61133 13.25 8.61133H30.75C31.4403 8.61133 32 9.28288 32 10.1114C32 10.9398 31.4403 11.6113 30.75 11.6113Z" fill="white"/>
<path d="M30.25 2.5H5.75001C4.78347 2.5 4 1.94038 4 1.25C4 0.55962 4.78347 0 5.75001 0H30.25C31.2165 0 32.0001 0.55962 32.0001 1.25C32.0001 1.94038 31.2165 2.5 30.25 2.5Z" fill="white"/>
</g>
<defs>
<filter id="filter0_d_1726_44360" x="0" y="0" width="36.0001" height="28" filterUnits="userSpaceOnUse" color-interpolation-filters="sRGB">
<feFlood flood-opacity="0" result="BackgroundImageFix"/>
<feColorMatrix in="SourceAlpha" type="matrix" values="0 0 0 0 0 0 0 0 0 0 0 0 0 0 0 0 0 0 127 0" result="hardAlpha"/>
<feOffset dy="4"/>
<feGaussianBlur stdDeviation="2"/>
<feComposite in2="hardAlpha" operator="out"/>
<feColorMatrix type="matrix" values="0 0 0 0 0 0 0 0 0 0 0 0 0 0 0 0 0 0 0.25 0"/>
<feBlend mode="normal" in2="BackgroundImageFix" result="effect1_dropShadow_1726_44360"/>
<feBlend mode="normal" in="SourceGraphic" in2="effect1_dropShadow_1726_44360" result="shape"/>
</filter>
</defs>
</svg>
