<svg width="48" height="48" viewBox="0 0 48 48" fill="none" xmlns="http://www.w3.org/2000/svg">
<path d="M35.924 31.3188C34.4024 29.8166 32.5029 29.8166 30.991 31.3188C29.8377 32.4624 28.6843 33.606 27.5504 34.769C27.2403 35.0888 26.9786 35.1567 26.6006 34.9435C25.8544 34.5364 25.0597 34.2069 24.3425 33.7611C20.9988 31.658 18.1979 28.954 15.7169 25.9108C14.486 24.3989 13.3909 22.7804 12.6252 20.9584C12.4702 20.5901 12.4992 20.3478 12.7997 20.0473C13.953 18.9328 15.0772 17.7892 16.2111 16.6456C17.7909 15.0561 17.7909 13.1953 16.2015 11.5962C15.3001 10.6852 14.3988 9.79354 13.4975 8.88253C12.5671 7.95212 11.6464 7.01203 10.7063 6.09132C9.18467 4.60849 7.2851 4.60849 5.7732 6.10101C4.61019 7.24463 3.49565 8.41732 2.31326 9.54156C1.2181 10.5786 0.665678 11.8482 0.549378 13.331C0.365235 15.7442 0.956428 18.0218 1.78991 20.2412C3.49565 24.835 6.09302 28.9152 9.24282 32.6562C13.4975 37.7153 18.5759 41.718 24.5169 44.6061C27.1918 45.9048 29.9636 46.903 32.9778 47.0678C35.0518 47.1841 36.8544 46.6607 38.2985 45.0422C39.2871 43.9374 40.4016 42.9294 41.4483 41.873C42.999 40.303 43.0087 38.4034 41.4677 36.8527C39.6263 35.0016 37.7752 33.1602 35.924 31.3188Z" fill="url(#paint0_radial_1794_45495)"/>
<path d="M34.0683 23.598L37.6445 22.9874C37.0824 19.7019 35.5317 16.7266 33.1767 14.3618C30.6859 11.871 27.5361 10.301 24.0665 9.81641L23.5625 13.412C26.2471 13.79 28.6894 15.0015 30.618 16.9301C32.4401 18.7521 33.6322 21.0588 34.0683 23.598Z" fill="url(#paint1_radial_1794_45495)"/>
<path d="M39.6621 8.05185C35.5334 3.92319 30.3096 1.31613 24.543 0.511719L24.0391 4.10733C29.0206 4.80514 33.5369 7.0633 37.1035 10.6201C40.4859 14.0025 42.7053 18.2766 43.5097 22.977L47.0859 22.3665C46.1458 16.9197 43.5775 11.977 39.6621 8.05185Z" fill="url(#paint2_radial_1794_45495)"/>
<defs>
<radialGradient id="paint0_radial_1794_45495" cx="0" cy="0" r="1" gradientUnits="userSpaceOnUse" gradientTransform="translate(21.5665 26.0319) rotate(90) scale(21.0514 21.0509)">
<stop stop-color="#818A9F"/>
<stop offset="1" stop-color="#0A0F1A"/>
</radialGradient>
<radialGradient id="paint1_radial_1794_45495" cx="0" cy="0" r="1" gradientUnits="userSpaceOnUse" gradientTransform="translate(30.6035 16.7072) rotate(90) scale(6.89079 7.04101)">
<stop stop-color="#818A9F"/>
<stop offset="1" stop-color="#0A0F1A"/>
</radialGradient>
<radialGradient id="paint2_radial_1794_45495" cx="0" cy="0" r="1" gradientUnits="userSpaceOnUse" gradientTransform="translate(35.5625 11.7444) rotate(90) scale(11.2327 11.5234)">
<stop stop-color="#818A9F"/>
<stop offset="1" stop-color="#0A0F1A"/>
</radialGradient>
</defs>
</svg>
