<svg width="91" height="90" viewBox="0 0 91 90" fill="none" xmlns="http://www.w3.org/2000/svg">
<g clip-path="url(#clip0_1794_44868)" filter="url(#filter0_d_1794_44868)">
<path d="M45.5 82C68.1437 82 86.5 63.6437 86.5 41C86.5 18.3563 68.1437 0 45.5 0C22.8563 0 4.5 18.3563 4.5 41C4.5 63.6437 22.8563 82 45.5 82Z" fill="#304880"/>
<path d="M86.1952 46.2808L71.1629 31.2485C67.5403 27.1519 58.7377 22.0397 49.5287 31.0453L45.1273 26.8133H34.1918V32.3658L30.6368 28.6416L23.5947 27.4906L20.1753 32.5352L28.4023 41.2024L29.418 49.1926L23.4255 43.0645L18.3809 50.0051L50.1719 81.7961C68.8945 79.6631 83.7912 64.9694 86.1949 46.3147V46.2808H86.1952Z" fill="#2D3F6A"/>
<path d="M60.2612 25.7988V25.8326C52.9483 25.8326 46.6172 31.7236 46.6172 39.4767C46.6172 45.2323 50.2399 50.3785 55.6569 52.3082C57.1467 52.8161 58.6702 53.0869 60.2614 53.0869C67.5743 53.0869 73.9054 47.1959 73.9054 39.4429C73.9054 31.7576 67.642 25.7988 60.2612 25.7988ZM70.452 32.7395C71.5353 34.4324 72.2463 36.4298 72.3817 38.5628H69.9441C69.8426 36.7007 69.3347 34.974 68.5898 33.3827H68.556C69.1994 33.1795 69.8426 32.9766 70.452 32.7395ZM69.4702 31.419C68.8946 31.6223 68.3192 31.7914 67.7434 31.9269C66.5244 30.0648 64.8656 28.5412 62.9358 27.4579C65.5089 28.0673 67.8111 29.4554 69.4702 31.419ZM64.1208 40.2217H68.5222C68.4207 41.7113 68.0482 43.1332 67.4727 44.4537C66.2877 44.1491 65.0689 43.9458 63.8162 43.7765C63.9855 42.6256 64.087 41.4406 64.1208 40.2217ZM63.7145 34.3645C64.8995 34.229 66.0505 34.0259 67.1678 33.7551C67.9127 35.2109 68.3867 36.836 68.5221 38.5626H64.1207C64.087 37.107 63.9515 35.7187 63.7145 34.3645ZM66.2876 32.2655C65.3396 32.4687 64.3916 32.604 63.4097 32.7056C63.0712 31.2497 62.6648 29.8617 62.1232 28.5751C63.7824 29.4554 65.2043 30.7419 66.2876 32.2655ZM62.0894 34.4662C62.2926 35.7865 62.428 37.1408 62.4618 38.529H58.2298C58.2636 37.1409 58.3991 35.7865 58.6022 34.5001C59.11 34.5339 59.6179 34.5339 60.1257 34.5339C60.7689 34.5339 61.4123 34.5 62.0554 34.4662H62.0894ZM54.3703 34.0261C55.2507 34.1953 56.1309 34.3307 57.045 34.4324C56.8417 35.7527 56.7064 37.1408 56.6386 38.5968H53.1516C53.2531 36.9717 53.6932 35.4481 54.3705 34.06L54.3703 34.0261ZM56.6386 40.2557C56.6724 41.4407 56.7741 42.6256 56.9433 43.7768C55.9613 43.8784 55.0135 44.0139 54.0994 44.217C53.5915 42.998 53.2529 41.6439 53.1514 40.2558L56.6386 40.2557ZM57.1803 45.4016C57.4511 46.8235 57.8574 48.1779 58.3313 49.4305C56.9433 48.4486 55.7245 47.1621 54.8443 45.7063C55.6229 45.5709 56.4016 45.4694 57.1803 45.4016ZM57.3496 32.8071C56.6385 32.7394 55.9277 32.6378 55.2506 32.5363C56.097 31.3175 57.1465 30.234 58.3653 29.3876C57.959 30.4709 57.6204 31.6221 57.3496 32.8071ZM58.9073 32.8409C58.9098 32.8409 58.9122 32.8411 58.9148 32.8411C59.2534 31.2286 59.7575 29.7166 60.3291 28.3381C60.9046 29.7262 61.4124 31.2497 61.751 32.8409C61.2092 32.8747 60.6675 32.8747 60.1259 32.8747C59.7221 32.8747 59.3185 32.8414 58.9148 32.8411C58.9124 32.8524 58.9095 32.8635 58.9071 32.8749L58.9073 32.8409C58.9074 32.8409 58.9071 32.8409 58.9073 32.8409ZM58.3315 27.3226C58.5008 27.3563 58.7039 27.3903 58.8731 27.4241C56.7741 28.575 55.0135 30.234 53.7608 32.2317C52.7789 32.0284 51.8311 31.7576 50.9507 31.453C52.813 29.2861 55.3859 27.7627 58.3315 27.3226ZM49.9689 32.7733C50.9169 33.1457 51.9325 33.4505 52.9823 33.7213C52.3051 35.2111 51.865 36.836 51.7633 38.5628H48.0392C48.1745 36.4298 48.8855 34.466 49.9689 32.7733ZM48.0392 40.2217H51.7633C51.8649 41.7115 52.2034 43.1671 52.7452 44.4875L52.7113 44.5213C51.628 44.7921 50.6123 45.1306 49.6304 45.5032C48.7164 43.946 48.1408 42.1516 48.0392 40.2217ZM58.2977 51.4957C55.149 50.988 52.3727 49.2952 50.5107 46.8575C51.4249 46.5189 52.4067 46.2481 53.4224 46.011C54.6751 48.2795 56.5711 50.1415 58.8394 51.3942C58.6701 51.428 58.4668 51.4619 58.2977 51.4957ZM60.2952 50.3787C59.6222 48.7971 59.1167 47.0814 58.7449 45.2322C58.7426 45.2323 58.7401 45.2323 58.7378 45.2327V45.1987C58.7401 45.2099 58.7426 45.221 58.7449 45.2322C59.1829 45.1989 59.6541 45.1989 60.0919 45.1989C60.6675 45.1989 61.2769 45.2327 61.8525 45.2327C61.4802 47.0607 60.9723 48.7873 60.2952 50.3787ZM60.0921 43.5397C59.5503 43.5397 59.0086 43.5397 58.467 43.5735C58.3317 42.49 58.23 41.339 58.1962 40.1879H62.3943C62.3605 41.3727 62.2928 42.4902 62.1235 43.6074C61.4464 43.5735 60.7691 43.5397 60.0921 43.5397ZM63.5792 45.4356C64.6625 45.5371 65.7121 45.7402 66.6939 45.9434C65.5768 47.704 63.9855 49.1937 62.1573 50.1754C62.7667 48.6856 63.2406 47.0945 63.5792 45.4356ZM62.9699 51.3265C65.1027 50.1415 66.8971 48.381 68.1161 46.282C68.7255 46.4513 69.335 46.6544 69.9105 46.8575C68.2176 49.058 65.7799 50.6833 62.9699 51.3265ZM68.8608 44.8262C69.4702 43.4043 69.8765 41.847 69.9781 40.2217H72.4156C72.2801 42.1513 71.7045 43.9458 70.7905 45.5032C70.1473 45.2663 69.5042 45.0293 68.8608 44.8262Z" fill="white"/>
<path d="M60.9385 33.6191C64.3295 33.6191 67.1007 36.3903 67.1007 39.7813C67.1007 43.1723 64.3295 45.9435 60.9385 45.9435C57.5476 45.9435 54.7764 43.1723 54.7764 39.7813C54.7764 36.3903 57.5474 33.6191 60.9385 33.6191Z" fill="#C6C6C6"/>
<path d="M74.8195 59.3156L68.2515 47.9061C68.0484 47.6013 67.6421 47.4997 67.3373 47.669L67.0665 47.8383L66.0508 46.1115V46.1117H66.0167C67.5403 44.8929 68.6236 43.1662 68.9621 41.101C69.707 36.6998 66.7276 32.5016 62.2924 31.7567C57.8912 31.0118 53.693 33.9912 52.9481 38.4264C52.2032 42.8277 55.1826 47.0258 59.6178 47.7707C61.1076 48.0077 62.6311 47.8383 63.9515 47.2967L64.9672 49.0235L64.6964 49.1927C64.3916 49.3958 64.29 49.8021 64.4593 50.1069L71.0275 61.5164C71.2306 61.8212 71.6369 61.9228 71.9417 61.7535L74.5825 60.2299C74.8873 60.0267 74.9888 59.6202 74.8195 59.3156ZM61.0752 45.5236C57.8357 45.5236 55.2095 42.8973 55.2095 39.6578C55.2095 36.4184 57.8357 33.7921 61.0752 33.7921C64.3147 33.7921 66.941 36.4184 66.941 39.6578C66.941 42.8973 64.3147 45.5236 61.0752 45.5236Z" fill="#304880"/>
<path d="M57.2145 38.7316C57.1807 38.9686 56.9774 39.104 56.7743 39.0702C56.6051 39.0364 56.4697 38.8669 56.4697 38.6978C56.4697 38.63 56.5035 38.5623 56.5035 38.4608C56.9098 35.9894 59.2798 34.2964 61.7512 34.7029C61.8189 34.7029 61.8867 34.7367 61.9544 34.7367H61.9882C62.2253 34.7704 62.3606 34.9737 62.3268 35.2107C62.293 35.4139 62.0898 35.5831 61.8527 35.5493C61.785 35.5155 61.6835 35.5155 61.6157 35.5155C59.5843 35.1769 57.6208 36.565 57.282 38.5964C57.282 38.6302 57.282 38.6642 57.2482 38.7319H57.2143L57.2145 38.7316Z" fill="#F7F7F8"/>
<path d="M67.3711 47.635L64.9673 49.0231L64.6965 49.1924C64.3919 49.3617 64.2902 49.768 64.4595 50.1066L71.0276 61.5161C71.1969 61.8207 71.6032 61.9224 71.9418 61.7531L74.5826 60.2296C74.8872 60.0603 74.9889 59.654 74.8196 59.3154L68.2516 47.9059C68.0823 47.6012 67.71 47.4996 67.4052 47.635H67.3711Z" fill="#E84F4F"/>
<path d="M67.0328 47.8387L67.3036 47.6694C67.6082 47.5002 68.0147 47.6017 68.2178 47.9065L74.7859 59.316C74.9552 59.6206 74.8537 60.0271 74.5489 60.2302L73.2286 61.0089L66.085 48.3805L67.0328 47.8387Z" fill="#C94545"/>
<path d="M31.5511 34.3971V33.3814C31.5511 31.35 31.3479 29.8943 30.9417 29.0477C30.5354 28.2013 29.7567 27.4904 28.5379 26.9148C27.319 26.3731 25.8633 26.0684 24.1027 26.0684C22.5116 26.0684 21.1911 26.3054 20.0399 26.847C18.9226 27.3549 18.1102 28.066 17.6023 28.98C17.0945 29.894 16.8574 31.316 16.8574 33.2799C16.8574 34.6342 17.0267 35.7514 17.3991 36.6316C17.7376 37.5118 18.2115 38.189 18.7194 38.6968C19.261 39.2047 20.3445 39.9834 22.0036 41.1006C23.6625 42.1839 24.6782 42.9628 25.1183 43.4367C25.5246 43.9107 25.7277 44.8925 25.7277 46.3821C25.7277 47.0592 25.6261 47.5671 25.3891 47.9395C25.1859 48.278 24.8475 48.4473 24.4072 48.4473C23.9671 48.4473 23.6623 48.3118 23.493 48.041C23.3237 47.7702 23.2222 47.1608 23.2222 46.1789V43.0643H17.0267V44.757C17.0267 46.6867 17.2299 48.1765 17.6023 49.1922C18.0086 50.2417 18.8213 51.0881 20.0737 51.7653C21.3261 52.4424 22.85 52.781 24.6444 52.781C26.2695 52.781 27.6915 52.4764 28.9101 51.9008C30.1291 51.3252 30.9416 50.5804 31.3815 49.734C31.8216 48.8538 32.0247 47.5335 32.0247 45.7051C32.0247 43.1996 31.6523 41.3714 30.8737 40.2542C30.095 39.1369 28.2328 37.6811 25.2874 35.9205C24.2717 35.3111 23.6285 34.7695 23.3915 34.3632C23.1544 33.9231 23.0529 33.2799 23.0529 32.4334C23.0529 31.7563 23.1544 31.2824 23.3575 30.9437C23.5606 30.6049 23.8654 30.4358 24.2717 30.4358C24.6441 30.4358 24.9149 30.5713 25.0504 30.8082C25.2197 31.0452 25.2874 31.6207 25.2874 32.501V34.397H31.4832H31.5511V34.3971ZM34.2257 26.6102V52.2393H45.8045V47.127H40.8954V41.4728H45.0598V36.5975H40.8954V31.6884H45.3306V26.5761H34.2257V26.6102Z" fill="white"/>
</g>
<defs>
<filter id="filter0_d_1794_44868" x="0.5" y="0" width="90" height="90" filterUnits="userSpaceOnUse" color-interpolation-filters="sRGB">
<feFlood flood-opacity="0" result="BackgroundImageFix"/>
<feColorMatrix in="SourceAlpha" type="matrix" values="0 0 0 0 0 0 0 0 0 0 0 0 0 0 0 0 0 0 127 0" result="hardAlpha"/>
<feOffset dy="4"/>
<feGaussianBlur stdDeviation="2"/>
<feComposite in2="hardAlpha" operator="out"/>
<feColorMatrix type="matrix" values="0 0 0 0 0 0 0 0 0 0 0 0 0 0 0 0 0 0 0.25 0"/>
<feBlend mode="normal" in2="BackgroundImageFix" result="effect1_dropShadow_1794_44868"/>
<feBlend mode="normal" in="SourceGraphic" in2="effect1_dropShadow_1794_44868" result="shape"/>
</filter>
<clipPath id="clip0_1794_44868">
<rect width="82" height="82" fill="white" transform="translate(4.5)"/>
</clipPath>
</defs>
</svg>
