<svg width="84" height="87" viewBox="0 0 84 87" fill="none" xmlns="http://www.w3.org/2000/svg">
<g filter="url(#filter0_d_1794_44957)">
<path d="M41.9999 78.4851C62.7027 78.4851 79.4856 61.7022 79.4856 40.9994C79.4856 20.2966 62.7027 3.51367 41.9999 3.51367C21.2971 3.51367 4.51416 20.2966 4.51416 40.9994C4.51416 61.7022 21.2971 78.4851 41.9999 78.4851Z" fill="#304880"/>
<path d="M62.1113 21.1254C61.6076 20.5982 61.0043 20.1707 60.3248 19.8719C59.6454 19.5732 58.8957 19.4092 58.1108 19.4092C56.424 19.4092 54.9128 20.1707 53.8937 21.3655L46.1447 13.6165C45.1314 12.5095 43.6847 11.8125 42.0681 11.8125C39.0224 11.8125 36.5448 14.2901 36.5448 17.3358C36.5448 18.8294 37.1423 20.1765 38.1028 21.1722H38.097L41.4121 24.4874V32.0724L30.553 21.1664L30.5471 21.1722C29.5397 20.0886 28.1047 19.4092 26.5115 19.4092C23.46 19.4092 20.9824 21.8809 20.9824 24.9325C20.9824 26.2972 21.4803 27.5448 22.3003 28.5054V28.5112L22.3471 28.5581C22.5111 28.7455 22.6868 28.9212 22.8743 29.0852L35.0981 41.3091C35.3441 42.9198 36.1348 44.3489 37.2828 45.4091L40.1821 48.3084V53.6384L37.8978 51.2604C37.8744 51.2369 37.8568 51.2135 37.8393 51.1959L37.7983 51.1608C37.3824 50.7801 36.8318 50.5399 36.2227 50.5399H35.5374V57.7677L40.147 62.8517V70.0208L48.1082 77.982C65.9044 75.0641 79.4855 59.6215 79.4855 40.9996C79.4855 40.149 79.447 39.3078 79.3912 38.4712L62.1113 21.1254Z" fill="#2D3F6A"/>
<path d="M41.4146 17.3398H42.7277V36.7256H41.4146V17.3398Z" fill="#3A556A"/>
<path d="M56.5674 25.8398L57.4958 26.7683L43.7901 40.474L42.8617 39.5456L56.5674 25.8398Z" fill="#3A556A"/>
<path d="M41.2861 39.5547L40.3577 40.4831L26.652 26.7774L27.5804 25.849L41.2861 39.5547Z" fill="#3A556A"/>
<path d="M42.0711 47.2888C45.971 47.2888 49.1325 44.1273 49.1325 40.2274C49.1325 36.3275 45.971 33.166 42.0711 33.166C38.1713 33.166 35.0098 36.3275 35.0098 40.2274C35.0098 44.1273 38.1713 47.2888 42.0711 47.2888Z" fill="#3A556A"/>
<path d="M42.0708 45.752C45.1219 45.752 47.5953 43.2787 47.5953 40.2276C47.5953 37.1765 45.1219 34.7031 42.0708 34.7031C39.0198 34.7031 36.5464 37.1765 36.5464 40.2276C36.5464 43.2787 39.0198 45.752 42.0708 45.752Z" fill="#EBF0F3"/>
<path d="M58.1138 30.4571C61.1649 30.4571 63.6383 27.9837 63.6383 24.9327C63.6383 21.8816 61.1649 19.4082 58.1138 19.4082C55.0627 19.4082 52.5894 21.8816 52.5894 24.9327C52.5894 27.9837 55.0627 30.4571 58.1138 30.4571Z" fill="#3A556A"/>
<path d="M58.1135 29.2553C60.5005 29.2553 62.4355 27.3203 62.4355 24.9333C62.4355 22.5463 60.5005 20.6113 58.1135 20.6113C55.7265 20.6113 53.7915 22.5463 53.7915 24.9333C53.7915 27.3203 55.7265 29.2553 58.1135 29.2553Z" fill="#E56353"/>
<path d="M26.5088 30.4571C29.5599 30.4571 32.0333 27.9837 32.0333 24.9327C32.0333 21.8816 29.5599 19.4082 26.5088 19.4082C23.4578 19.4082 20.9844 21.8816 20.9844 24.9327C20.9844 27.9837 23.4578 30.4571 26.5088 30.4571Z" fill="#3A556A"/>
<path d="M26.509 29.2553C28.896 29.2553 30.831 27.3203 30.831 24.9333C30.831 22.5463 28.896 20.6113 26.509 20.6113C24.122 20.6113 22.187 22.5463 22.187 24.9333C22.187 27.3203 24.122 29.2553 26.509 29.2553Z" fill="#27A2DB"/>
<path d="M42.0708 22.8634C45.1219 22.8634 47.5953 20.39 47.5953 17.3389C47.5953 14.2878 45.1219 11.8145 42.0708 11.8145C39.0198 11.8145 36.5464 14.2878 36.5464 17.3389C36.5464 20.39 39.0198 22.8634 42.0708 22.8634Z" fill="#3A556A"/>
<path d="M42.071 21.6615C44.458 21.6615 46.393 19.7265 46.393 17.3396C46.393 14.9526 44.458 13.0176 42.071 13.0176C39.684 13.0176 37.749 14.9526 37.749 17.3396C37.749 19.7265 39.684 21.6615 42.071 21.6615Z" fill="#FCD462"/>
<path d="M51.0442 48.9328C50.1875 48.9328 49.4929 49.6273 49.4929 50.4841V49.9799C49.4929 49.1231 48.7983 48.4286 47.9416 48.4286C47.0848 48.4286 46.3902 49.1231 46.3902 49.9799V49.0494C46.3902 48.1926 45.6956 47.498 44.8389 47.498C43.9821 47.498 43.2875 48.1926 43.2875 49.0494V42.6763C43.2875 41.8196 42.5929 41.125 41.7361 41.125C40.8794 41.125 40.1848 41.8196 40.1848 42.6763V52.8882V54.8049V57.6398L38.5398 55.8959V52.8537C38.5398 51.5756 37.5038 50.5396 36.2258 50.5396H35.5396V57.7711L40.9684 63.7571H51.5357L52.5956 57.8343V56.2396V52.8882V50.4841C52.5956 49.6273 51.901 48.9328 51.0442 48.9328Z" fill="#FCD462"/>
<path d="M40.147 62.8516H51.8842V70.0242H40.147V62.8516Z" fill="#3A556A"/>
<path d="M44.5369 19.4071V19.0261C44.5369 18.6994 44.4154 18.3845 44.1956 18.1426C44.0973 18.0345 43.9817 17.9433 43.8535 17.8731L43.0304 17.4221L42.8323 17.237L42.7099 17.0221V16.7565C42.8002 16.6635 42.8742 16.5749 42.9518 16.4225C43.0522 16.2251 43.0083 15.9549 43.0083 15.9549L43.0078 15.9399C43.0096 15.9402 43.0114 15.9413 43.0133 15.9414C43.0801 15.9448 43.1418 15.8348 43.1511 15.6956C43.1583 15.5885 43.1321 15.496 43.0894 15.4572C43.1027 15.4151 43.1185 15.3701 43.1375 15.3218C43.2949 14.9221 43.22 14.2799 42.8151 14.3192C42.8151 14.3192 42.7776 13.8998 42.1929 13.9063C41.6081 13.9129 41.0983 14.116 40.9933 14.424C40.8884 14.732 40.9184 15.0663 41.0308 15.3939C41.0383 15.4156 41.0438 15.4349 41.0501 15.4553C41.0058 15.4927 40.9785 15.5865 40.9858 15.6956C40.9951 15.8348 41.0568 15.9448 41.1236 15.9414C41.1255 15.9413 41.1272 15.9402 41.1291 15.9399L41.1286 15.9549C41.1286 15.9549 41.0847 16.2251 41.1851 16.4225C41.264 16.5777 41.3394 16.6666 41.4319 16.7615V17.0221L41.3085 17.2387L41.1135 17.4209L40.288 17.8731C40.1598 17.9433 40.0442 18.0345 39.9463 18.1426C39.7265 18.3845 39.605 18.6994 39.605 19.0261V19.4071H44.5369Z" fill="white"/>
<path d="M60.5799 27.161V26.78C60.5799 26.4533 60.4583 26.1384 60.2385 25.8965C60.1403 25.7884 60.0247 25.6972 59.8964 25.627L59.0733 25.176L58.8753 24.9909L58.7529 24.776V24.5104C58.8432 24.4174 58.9172 24.3288 58.9948 24.1764C59.0952 23.979 59.0513 23.7088 59.0513 23.7088L59.0507 23.6938C59.0526 23.6941 59.0543 23.6952 59.0562 23.6953C59.123 23.6987 59.1847 23.5887 59.1941 23.4496C59.2012 23.3424 59.1751 23.2499 59.1323 23.2111C59.1457 23.169 59.1615 23.124 59.1804 23.0757C59.3379 22.676 59.2629 22.0338 58.8581 22.0731C58.8581 22.0731 58.8206 21.6537 58.2358 21.6602C57.6511 21.6668 57.1413 21.8699 57.0363 22.1779C56.9314 22.4859 56.9614 22.8202 57.0738 23.1478C57.0812 23.1695 57.0867 23.1888 57.0931 23.2093C57.0488 23.2466 57.0214 23.3404 57.0287 23.4496C57.0381 23.5887 57.0998 23.6987 57.1666 23.6953C57.1685 23.6952 57.1702 23.6941 57.1721 23.6938L57.1716 23.7088C57.1716 23.7088 57.1276 23.979 57.2281 24.1764C57.307 24.3316 57.3823 24.4206 57.4749 24.5154V24.776L57.3515 24.9926L57.1565 25.1748L56.331 25.627C56.2027 25.6972 56.0871 25.7884 55.9893 25.8965C55.7695 26.1384 55.6479 26.4533 55.6479 26.78V27.161H60.5799Z" fill="white"/>
<path d="M28.9749 27.161V26.78C28.9749 26.4533 28.8534 26.1384 28.6336 25.8965C28.5353 25.7884 28.4197 25.6972 28.2915 25.627L27.4684 25.176L27.2703 24.9909L27.1479 24.776V24.5104C27.2382 24.4174 27.3122 24.3288 27.3898 24.1764C27.4902 23.979 27.4463 23.7088 27.4463 23.7088L27.4457 23.6938C27.4476 23.6941 27.4494 23.6952 27.4513 23.6953C27.5181 23.6987 27.5798 23.5887 27.5891 23.4496C27.5963 23.3424 27.5701 23.2499 27.5273 23.2111C27.5407 23.169 27.5565 23.124 27.5755 23.0757C27.7329 22.676 27.6579 22.0338 27.2531 22.0731C27.2531 22.0731 27.2156 21.6537 26.6309 21.6602C26.0461 21.6668 25.5363 21.8699 25.4313 22.1779C25.3264 22.4859 25.3564 22.8202 25.4688 23.1478C25.4763 23.1695 25.4817 23.1888 25.4881 23.2093C25.4438 23.2466 25.4164 23.3404 25.4238 23.4496C25.4331 23.5887 25.4948 23.6987 25.5616 23.6953C25.5635 23.6952 25.5652 23.6941 25.5671 23.6938L25.5666 23.7088C25.5666 23.7088 25.5226 23.979 25.6231 24.1764C25.702 24.3316 25.7774 24.4206 25.8699 24.5154V24.776L25.7465 24.9926L25.5515 25.1748L24.726 25.627C24.5978 25.6972 24.4821 25.7884 24.3843 25.8965C24.1645 26.1384 24.043 26.4533 24.043 26.78V27.161H28.9749Z" fill="white"/>
</g>
<defs>
<filter id="filter0_d_1794_44957" x="-3" y="0" width="90" height="90" filterUnits="userSpaceOnUse" color-interpolation-filters="sRGB">
<feFlood flood-opacity="0" result="BackgroundImageFix"/>
<feColorMatrix in="SourceAlpha" type="matrix" values="0 0 0 0 0 0 0 0 0 0 0 0 0 0 0 0 0 0 127 0" result="hardAlpha"/>
<feOffset dy="4"/>
<feGaussianBlur stdDeviation="2"/>
<feComposite in2="hardAlpha" operator="out"/>
<feColorMatrix type="matrix" values="0 0 0 0 0 0 0 0 0 0 0 0 0 0 0 0 0 0 0.25 0"/>
<feBlend mode="normal" in2="BackgroundImageFix" result="effect1_dropShadow_1794_44957"/>
<feBlend mode="normal" in="SourceGraphic" in2="effect1_dropShadow_1794_44957" result="shape"/>
</filter>
</defs>
</svg>
